<svg width="65" height="65" viewBox="0 0 65 65" fill="#FDBECF" xmlns="http://www.w3.org/2000/svg">
<path d="M10 0H25V5H10V0Z"/>
<path d="M10 0H25V5H10V0Z"/>
<path d="M10 60H25V65H10V60Z"/>
<path d="M10 60H25V65H10V60Z"/>
<path d="M40 60H55V65H40V60Z"/>
<path d="M40 60H55V65H40V60Z"/>
<path d="M40 0H55V5H40V0Z"/>
<path d="M40 0H55V5H40V0Z"/>
<path d="M60 40H65V55H60V40Z"/>
<path d="M60 40H65V55H60V40Z"/>
<path d="M60 10H65V25H60V10Z"/>
<path d="M60 10H65V25H60V10Z"/>
<path d="M0 10H5V25H0V10Z"/>
<path d="M0 10H5V25H0V10Z"/>
<path d="M0 40H5V55H0V40Z"/>
<path d="M0 40H5V55H0V40Z"/>
<path d="M5 55H10V60H5V55Z"/>
<path d="M5 55H10V60H5V55Z"/>
<path d="M55 55H60V60H55V55Z"/>
<path d="M5 5H10V10H5V5Z"/>
<path d="M55 5H60V10H55V5Z"/>
</svg>
